<?xml version="1.0" encoding="UTF-8"?><svg id="Layer_2" xmlns="http://www.w3.org/2000/svg" viewBox="0 0 509.62 95.4"><defs><style>.cls-1{fill:#fff;}</style></defs><g id="Layer_1-2"><g><path class="cls-1" d="M36.72,69.95c-2.69,1.94-6,2.92-9.94,2.92-2.69,0-5.05-.46-7.09-1.37-2.04-.91-3.76-2.2-5.15-3.85-1.39-1.66-2.44-3.59-3.13-5.8-.7-2.21-1.04-4.61-1.04-7.2s.35-5.06,1.04-7.27c.7-2.21,1.72-4.13,3.06-5.76,1.34-1.63,3.02-2.9,5.04-3.82,2.02-.91,4.3-1.37,6.84-1.37s4.84,.43,6.88,1.3c2.04,.86,3.72,2.11,5.04,3.74,1.32,1.63,2.15,3.65,2.48,6.05h10.37c-.43-4.13-1.7-7.73-3.82-10.8-2.11-3.07-4.94-5.47-8.5-7.2-3.55-1.73-7.7-2.59-12.46-2.59s-8.51,.78-11.84,2.34c-3.34,1.56-6.07,3.64-8.21,6.23-2.14,2.59-3.72,5.47-4.75,8.64-1.03,3.17-1.55,6.38-1.55,9.65v1.58c0,2.98,.5,6.04,1.51,9.18,1.01,3.14,2.58,6.07,4.72,8.78,2.14,2.71,4.9,4.9,8.28,6.55,3.38,1.66,7.48,2.48,12.28,2.48s9.29-.94,12.89-2.81c3.6-1.87,6.43-4.37,8.5-7.49,2.06-3.12,3.34-6.55,3.82-10.3h-10.37c-.58,3.5-2.21,6.23-4.9,8.17Z"/><polygon class="cls-1" points="55.44 28.44 55.44 35.93 60.34 35.93 60.34 81 70.34 81 70.34 35.93 70.34 28.44 60.34 28.44 55.44 28.44"/><polygon class="cls-1" points="78.19 41.9 78.19 49.39 83.66 49.39 83.66 81 93.67 81 93.67 49.39 93.67 41.9 83.66 41.9 78.19 41.9"/><path class="cls-1" d="M87.34,37.22c1.97,0,3.41-.5,4.32-1.51,.91-1.01,1.37-2.33,1.37-3.96s-.46-2.88-1.37-3.89c-.91-1.01-2.35-1.51-4.32-1.51s-3.42,.5-4.36,1.51c-.94,1.01-1.4,2.3-1.4,3.89s.47,2.95,1.4,3.96c.94,1.01,2.39,1.51,4.36,1.51Z"/><path class="cls-1" d="M158.76,42.73c-2.02-1.37-4.54-2.05-7.56-2.05h-.43c-2.98,0-5.46,.68-7.45,2.05-1.99,1.37-3.5,3.38-4.54,6.05-.09,.24-.17,.48-.26,.73-.08-.25-.16-.49-.25-.73-.98-2.66-2.47-4.68-4.46-6.05-1.99-1.37-4.5-2.05-7.52-2.05h-.43c-2.98,0-5.46,.68-7.45,2.05-1.99,1.37-3.49,3.38-4.5,6.05-.32,.83-.58,1.74-.79,2.69v-9.57h-7.92v39.1h10.01v-22.9c0-2.59,.7-4.64,2.09-6.16,1.39-1.51,3.24-2.27,5.54-2.27s4.02,.73,5.29,2.2c1.27,1.46,1.91,3.44,1.91,5.94v23.18h10.01v-22.9c0-2.59,.7-4.64,2.09-6.16,1.39-1.51,3.24-2.27,5.54-2.27s4.02,.73,5.29,2.2c1.27,1.46,1.91,3.44,1.91,5.94v23.18h10.01v-22.32c0-3.94-.52-7.24-1.55-9.9-1.03-2.66-2.56-4.68-4.57-6.05Z"/><path class="cls-1" d="M199.11,42.91c-2.66-1.06-6.01-1.58-10.04-1.58-1.3,0-2.69,.01-4.18,.04-1.49,.02-2.92,.08-4.28,.18-1.37,.1-2.6,.19-3.71,.29v8.5c1.34-.1,2.87-.18,4.57-.25,1.7-.07,3.4-.13,5.08-.18,1.68-.05,3.12-.07,4.32-.07,2.26,0,3.94,.56,5.04,1.69,1.1,1.13,1.66,2.8,1.66,5v.36h-7.92c-3.46,0-6.48,.46-9.07,1.37-2.59,.91-4.58,2.28-5.98,4.1-1.39,1.82-2.09,4.18-2.09,7.06,0,2.64,.59,4.9,1.76,6.77,1.18,1.87,2.82,3.31,4.93,4.32,2.11,1.01,4.58,1.51,7.42,1.51s5.05-.49,6.95-1.48c1.9-.98,3.38-2.41,4.46-4.28,.48-.84,.87-1.78,1.19-2.8v7.55h7.99v-24.19c0-3.65-.68-6.61-2.05-8.89-1.37-2.28-3.38-3.95-6.05-5Zm-5.76,31.21c-1.18,.5-2.46,.76-3.85,.76-2.3,0-4.07-.55-5.29-1.66-1.22-1.1-1.84-2.54-1.84-4.32s.61-3.21,1.84-4.32c1.22-1.1,2.99-1.66,5.29-1.66h8.06v3.6c-.1,2.11-.53,3.78-1.3,5-.77,1.22-1.74,2.09-2.92,2.59Z"/><path class="cls-1" d="M228.53,30.89h-9.43v11.02h-6.19v7.34h6.19v17.06c0,3.79,.56,6.8,1.69,9.04,1.13,2.23,2.85,3.82,5.18,4.75,2.33,.94,5.32,1.4,8.96,1.4h5.62v-8.57h-6.12c-1.92,0-3.4-.52-4.43-1.55-1.03-1.03-1.55-2.51-1.55-4.43l.04-17.71h12.06v-7.34h-12.05l.02-11.02Z"/><path class="cls-1" d="M276.44,43.31c-2.86-1.85-6.4-2.77-10.62-2.77-3.22,0-6.06,.56-8.53,1.69-2.47,1.13-4.52,2.64-6.16,4.54-1.63,1.9-2.87,4.06-3.71,6.48-.84,2.42-1.26,4.93-1.26,7.52v1.37c0,2.5,.42,4.94,1.26,7.34,.84,2.4,2.09,4.57,3.74,6.52,1.66,1.94,3.74,3.49,6.26,4.64,2.52,1.15,5.46,1.73,8.82,1.73s6.08-.55,8.6-1.66,4.6-2.66,6.23-4.68c1.63-2.02,2.74-4.37,3.31-7.06h-9.29c-.43,1.44-1.42,2.65-2.95,3.64-1.54,.98-3.5,1.48-5.9,1.48s-4.46-.54-6.05-1.62c-1.58-1.08-2.76-2.57-3.53-4.46-.5-1.23-.82-2.6-.99-4.07h29.36v-3.67c0-3.46-.72-6.68-2.16-9.68-1.44-3-3.59-5.42-6.44-7.27Zm-16.24,7.06c1.54-1.03,3.41-1.55,5.62-1.55s4.03,.48,5.47,1.44c1.44,.96,2.53,2.33,3.28,4.1,.42,1.01,.71,2.14,.89,3.38h-19.62c.2-1.1,.49-2.11,.87-3.02,.79-1.87,1.96-3.32,3.49-4.36Z"/><path class="cls-1" d="M324.4,52.42c-2.81-1.3-6.11-2.09-9.9-2.38l-4.54-.43c-2.59-.19-4.49-.9-5.69-2.12-1.2-1.22-1.8-2.65-1.8-4.28,0-1.34,.34-2.58,1.01-3.71,.67-1.13,1.67-2.04,2.99-2.74,1.32-.7,2.99-1.04,5-1.04s3.86,.38,5.26,1.15c1.39,.77,2.42,1.76,3.1,2.99,.67,1.22,1.01,2.53,1.01,3.92h10.01c0-3.41-.78-6.37-2.34-8.89-1.56-2.52-3.79-4.48-6.7-5.87-2.9-1.39-6.35-2.09-10.33-2.09s-7.19,.66-10.04,1.98c-2.86,1.32-5.08,3.19-6.66,5.62-1.58,2.42-2.38,5.32-2.38,8.68,0,4.46,1.5,8.05,4.5,10.76,3,2.71,7.02,4.28,12.06,4.72l4.61,.43c3.36,.29,5.83,1,7.42,2.12,1.58,1.13,2.38,2.6,2.38,4.43,0,1.49-.42,2.82-1.26,4-.84,1.18-2.09,2.12-3.74,2.84-1.66,.72-3.76,1.08-6.3,1.08-2.74,0-4.96-.41-6.66-1.22-1.7-.82-2.94-1.88-3.71-3.2-.77-1.32-1.15-2.67-1.15-4.07h-10.01c0,3.31,.83,6.28,2.48,8.89,1.66,2.62,4.09,4.67,7.31,6.16,3.22,1.49,7.13,2.23,11.74,2.23,4.37,0,8.15-.7,11.34-2.09,3.19-1.39,5.65-3.35,7.38-5.87s2.59-5.44,2.59-8.75c0-3.12-.79-5.78-2.38-7.99-1.58-2.21-3.78-3.96-6.59-5.26Z"/><path class="cls-1" d="M363.67,40.68h-.43c-3.12,0-5.72,.67-7.81,2.02-2.09,1.34-3.66,3.35-4.72,6.01-.35,.88-.63,1.83-.86,2.85v-9.65h-7.92v39.1h10.01v-22.97c0-2.5,.76-4.51,2.27-6.05,1.51-1.54,3.49-2.3,5.94-2.3s4.22,.74,5.62,2.23c1.39,1.49,2.09,3.43,2.09,5.83v23.26h10.01v-22.39c0-5.95-1.2-10.43-3.6-13.43-2.4-3-5.93-4.5-10.58-4.5Z"/><path class="cls-1" d="M412.09,42.91c-2.66-1.06-6.01-1.58-10.04-1.58-1.3,0-2.69,.01-4.18,.04-1.49,.02-2.92,.08-4.28,.18-1.37,.1-2.6,.19-3.71,.29v8.5c1.34-.1,2.87-.18,4.57-.25,1.7-.07,3.4-.13,5.08-.18,1.68-.05,3.12-.07,4.32-.07,2.26,0,3.94,.56,5.04,1.69,1.1,1.13,1.66,2.8,1.66,5v.36h-7.92c-3.46,0-6.48,.46-9.07,1.37-2.59,.91-4.58,2.28-5.98,4.1-1.39,1.82-2.09,4.18-2.09,7.06,0,2.64,.59,4.9,1.76,6.77,1.18,1.87,2.82,3.31,4.93,4.32,2.11,1.01,4.58,1.51,7.42,1.51s5.05-.49,6.95-1.48c1.9-.98,3.38-2.41,4.46-4.28,.48-.84,.87-1.78,1.19-2.8v7.55h7.99v-24.19c0-3.65-.68-6.61-2.05-8.89-1.37-2.28-3.38-3.95-6.05-5Zm-5.76,31.21c-1.18,.5-2.46,.76-3.85,.76-2.3,0-4.07-.55-5.29-1.66-1.22-1.1-1.84-2.54-1.84-4.32s.61-3.21,1.84-4.32c1.22-1.1,2.99-1.66,5.29-1.66h8.06v3.6c-.1,2.11-.53,3.78-1.3,5-.77,1.22-1.74,2.09-2.92,2.59Z"/><path class="cls-1" d="M467.46,46.44c-1.61-1.82-3.53-3.24-5.76-4.25-2.23-1.01-4.74-1.51-7.52-1.51-3.02,0-5.76,.66-8.21,1.98-2.45,1.32-4.4,3.32-5.87,6.01-.49,.91-.91,1.9-1.26,2.95v-9.72h-7.92v53.5h10.01v-19.6c1.39,2.05,3.13,3.61,5.22,4.66,2.42,1.22,5.1,1.84,8.03,1.84s5.3-.52,7.56-1.55c2.26-1.03,4.19-2.46,5.8-4.28,1.61-1.82,2.83-3.96,3.67-6.41,.84-2.45,1.26-5.09,1.26-7.92v-1.51c0-2.78-.43-5.39-1.3-7.81-.86-2.42-2.1-4.55-3.71-6.37Zm-6.41,21.42c-.89,1.9-2.15,3.37-3.78,4.43-1.63,1.06-3.5,1.58-5.62,1.58-1.87,0-3.65-.43-5.33-1.3-1.68-.86-3.05-2.09-4.1-3.67-1.06-1.58-1.58-3.5-1.58-5.76v-2.88c0-2.35,.52-4.36,1.55-6.01,1.03-1.66,2.38-2.93,4.03-3.82,1.66-.89,3.47-1.33,5.44-1.33,2.16,0,4.04,.52,5.65,1.55,1.61,1.03,2.85,2.47,3.74,4.32,.89,1.85,1.33,4,1.33,6.44s-.44,4.55-1.33,6.44Z"/><path class="cls-1" d="M483.73,10.43V0h-6.95V10.43c0,.96-.78,1.74-1.74,1.74h-10.43v6.95h10.43c4.79,0,8.69-3.9,8.69-8.69Z"/><path class="cls-1" d="M499.19,12.16c-.96,0-1.74-.78-1.74-1.74V0h-6.95V10.43c0,4.79,3.9,8.69,8.69,8.69h10.43v-6.95h-10.43Z"/><path class="cls-1" d="M490.5,34.18v10.43h6.95v-10.43c0-.96,.78-1.74,1.74-1.74h10.43v-6.95h-10.43c-4.79,0-8.69,3.9-8.69,8.69Z"/><path class="cls-1" d="M475.44,25.49h-10.43v6.95h10.43c.96,0,1.74,.78,1.74,1.74v10.43h6.95v-10.43c0-4.79-3.9-8.69-8.69-8.69Z"/></g></g></svg>